0
SECTION
2
HEADER
9
$INSUNITS
70
4
9
$ACADVER
1
AC1014
9
$HANDSEED
5
FFFF
0
ENDSEC
0
SECTION
2
TABLES
0
TABLE
2
VPORT
5
8
100
AcDbSymbolTable
0
ENDTAB
0
TABLE
2
LTYPE
5
5
100
AcDbSymbolTable
0
LTYPE
5
14
100
AcDbSymbolTableRecord
100
AcDbLinetypeTableRecord
2
BYBLOCK
70
0
0
LTYPE
5
15
100
AcDbSymbolTableRecord
100
AcDbLinetypeTableRecord
2
BYLAYER
70
0
0
ENDTAB
0
TABLE
2
LAYER
5
2
100
AcDbSymbolTable
70
2
0
LAYER
5
50
100
AcDbSymbolTableRecord
100
AcDbLayerTableRecord
2
0
70
0
6
CONTINUOUS
0
ENDTAB
0
TABLE
2
STYLE
5
3
100
AcDbSymbolTable
70
1
0
STYLE
5
11
100
AcDbSymbolTableRecord
100
AcDbTextStyleTableRecord
2
STANDARD
70
0
0
ENDTAB
0
TABLE
2
VIEW
5
6
100
AcDbSymbolTable
70
0
0
ENDTAB
0
TABLE
2
UCS
5
7
100
AcDbSymbolTable
70
0
0
ENDTAB
0
TABLE
2
APPID
5
9
100
AcDbSymbolTable
70
2
0
APPID
5
12
100
AcDbSymbolTableRecord
100
AcDbRegAppTableRecord
2
ACAD
70
0
0
ENDTAB
0
TABLE
2
DIMSTYLE
5
A
100
AcDbSymbolTable
70
1
0
ENDTAB
0
TABLE
2
BLOCK_RECORD
5
1
100
AcDbSymbolTable
70
1
0
BLOCK_RECORD
5
1F
100
AcDbSymbolTableRecord
100
AcDbBlockTableRecord
2
*MODEL_SPACE
0
BLOCK_RECORD
5
1B
100
AcDbSymbolTableRecord
100
AcDbBlockTableRecord
2
*PAPER_SPACE
0
ENDTAB
0
ENDSEC
0
SECTION
2
BLOCKS
0
BLOCK
5
20
100
AcDbEntity
100
AcDbBlockBegin
2
*MODEL_SPACE
0
ENDBLK
5
21
100
AcDbEntity
100
AcDbBlockEnd
0
BLOCK
5
1C
100
AcDbEntity
100
AcDbBlockBegin
2
*PAPER_SPACE
0
ENDBLK
5
1D
100
AcDbEntity
100
AcDbBlockEnd
0
ENDSEC
0
SECTION
2
ENTITIES
0
CIRCLE
5
100
100
AcDbEntity
8
0
100
AcDbCircle
10
11.000000000000016
20
189.00000000000003
30
0
40
3.2000000000000006
210
0
220
0
230
1
0
CIRCLE
5
101
100
AcDbEntity
8
0
100
AcDbCircle
10
259
20
189.00000000000003
30
0
40
3.2000000000000006
210
0
220
0
230
1
0
CIRCLE
5
102
100
AcDbEntity
8
0
100
AcDbCircle
10
135
20
189.00000000000003
30
0
40
3.2000000000000006
210
0
220
0
230
1
0
CIRCLE
5
103
100
AcDbEntity
8
0
100
AcDbCircle
10
179.95000000000002
20
37.600000000000009
30
0
40
1.6000000000000003
210
0
220
0
230
1
0
CIRCLE
5
104
100
AcDbEntity
8
0
100
AcDbCircle
10
11.000000000000005
20
74.200000000000003
30
0
40
3.2000000000000006
210
0
220
0
230
1
0
CIRCLE
5
105
100
AcDbEntity
8
0
100
AcDbCircle
10
259
20
74.200000000000031
30
0
40
3.2000000000000006
210
0
220
0
230
1
0
LWPOLYLINE
5
106
100
AcDbEntity
8
0
100
AcDbPolyline
90
32
70
1
43
0.0
10
142.99999998509884
20
192.59999998509883
10
142.99999998509884
20
196
42
0.41421356237303258
10
141.99999998509884
20
197.00000000000003
10
81.500100773149512
20
197.00000001731399
42
0.41421356245689178
10
80.500100772863362
20
196.00000001731402
10
80.500100772863334
20
182.99999998779751
42
-0.41421356237314966
10
79.500100772863362
20
181.99999998779748
10
19.500100743060862
20
181.99999998779742
42
-0.41421356237305795
10
18.500100743060862
20
182.99999998779739
10
18.500100743060845
20
196.00000001592403
42
0.4142135628640658
10
17.500100741384649
20
197.000000015924
10
8.0000000000000409
20
197.00000000000003
42
0.41421356237309837
10
2.9999999999999827
20
192.00000000000003
10
2.9999999999999805
20
71.200000000000017
42
0.41421356237309587
10
8.0000000000000036
20
66.200000000000017
10
73.05000000000004
20
66.200000000000017
42
-0.41421356237309503
10
74.050000000000026
20
65.200000000000017
10
74.050000000000026
20
35.000000000000007
42
0.41421356237309503
10
75.050000000000026
20
34.000000000000007
10
194.95000000000002
20
33.999999999999986
42
0.41421356237310153
10
195.94999999999999
20
34.999999999999986
10
195.94999999999999
20
65.200000000000017
42
-0.41421356237309503
10
196.94999999999999
20
66.200000000000031
10
262
20
66.200000000000017
42
0.41421356237309193
10
267
20
71.200000000000045
10
267
20
192.00000000000003
42
0.41421356237309503
10
262
20
197.00000000000003
10
183.9000000149012
20
197.00000000000003
42
0.41421356237310542
10
182.9000000149012
20
196
10
182.9000000149012
20
192.59999998509883
42
-0.41421356237309503
10
181.9000000149012
20
191.5999999850988
10
143.99999998509881
20
191.5999999850988
42
-0.41421356237310025
0
CIRCLE
5
107
100
AcDbEntity
8
0
100
AcDbCircle
10
188.94999999999999
20
41.000000000000014
30
0
40
3.2000000000000006
210
0
220
0
230
1
0
CIRCLE
5
108
100
AcDbEntity
8
0
100
AcDbCircle
10
81.050000000000026
20
41.000000000000014
30
0
40
3.2000000000000006
210
0
220
0
230
1
0
CIRCLE
5
109
100
AcDbEntity
8
0
100
AcDbCircle
10
90.050000000000026
20
37.600000000000009
30
0
40
1.6000000000000003
210
0
220
0
230
1
0
CIRCLE
5
110
100
AcDbEntity
8
0
100
AcDbCircle
10
263.39999999999998
20
83.200000000000017
30
0
40
1.6000000000000003
210
0
220
0
230
1
0
CIRCLE
5
111
100
AcDbEntity
8
0
100
AcDbCircle
10
6.6000000000000183
20
180
30
0
40
1.6000000000000003
210
0
220
0
230
1
0
CIRCLE
5
112
100
AcDbEntity
8
0
100
AcDbCircle
10
263.39999999999998
20
180
30
0
40
1.6000000000000003
210
0
220
0
230
1
0
CIRCLE
5
113
100
AcDbEntity
8
0
100
AcDbCircle
10
6.599999999999997
20
83.200000000000003
30
0
40
1.6000000000000003
210
0
220
0
230
1
0
LINE
5
114
100
AcDbEntity
8
0
100
AcDbLine
10
68.358676579577207
20
159.30490515050417
30
0
11
68.358676579577207
21
166.93298907203291
31
0
0
LINE
5
115
100
AcDbEntity
8
0
100
AcDbLine
10
82.308676579577195
20
166.93298907203291
30
0
11
82.308676579577195
21
159.30490515050417
31
0
0
LINE
5
116
100
AcDbEntity
8
0
100
AcDbLine
10
66.358676579577178
20
168.93298907203291
30
0
11
66.358676579577207
21
169.09394711126851
31
0
0
LINE
5
117
100
AcDbEntity
8
0
100
AcDbLine
10
66.358676579577207
20
157.30490515050417
30
0
11
66.358676579577207
21
157.14394711126855
31
0
0
LINE
5
118
100
AcDbEntity
8
0
100
AcDbLine
10
84.308676579577224
20
168.93298907203291
30
0
11
84.308676579577224
21
169.09394711126851
31
0
0
LINE
5
119
100
AcDbEntity
8
0
100
AcDbLine
10
84.30867657957721
20
157.30490515050417
30
0
11
84.30867657957721
21
157.14394711126855
31
0
0
LINE
5
120
100
AcDbEntity
8
0
100
AcDbLine
10
67.358676579577207
20
170.09394711126851
30
0
11
83.308676579577252
21
170.09394711126851
31
0
0
LINE
5
121
100
AcDbEntity
8
0
100
AcDbLine
10
67.358676579577207
20
156.14394711126857
30
0
11
83.308676579577224
21
156.14394711126855
31
0
0
ARC
5
122
100
AcDbEntity
8
0
100
AcDbCircle
10
67.358676579577235
20
169.09394711126851
30
0
40
1.0000000000000142
210
0
220
0
230
1
100
AcDbArc
50
90.000000000001634
51
180
0
ARC
5
123
100
AcDbEntity
8
0
100
AcDbCircle
10
67.358676579577264
20
168.932989072033
30
0
40
1.0000000000000853
210
0
220
0
230
1
100
AcDbArc
50
180
51
269.99999999999676
0
ARC
5
124
100
AcDbEntity
8
0
100
AcDbCircle
10
67.35867657957715
20
166.93298907203285
30
0
40
1.0000000000000497
210
0
220
-0
230
1
100
AcDbArc
50
0
51
89.999999999996746
0
ARC
5
125
100
AcDbEntity
8
0
100
AcDbCircle
10
67.358676579577207
20
157.30490515050417
30
0
40
0.99999999999999645
210
0
220
-0
230
1
100
AcDbArc
50
90
51
180
0
ARC
5
126
100
AcDbEntity
8
0
100
AcDbCircle
10
67.358676579577192
20
157.14394711126855
30
0
40
0.99999999999998757
210
0
220
0
230
1
100
AcDbArc
50
180
51
270.0000000000008
0
ARC
5
127
100
AcDbEntity
8
0
100
AcDbCircle
10
67.358676579577207
20
159.30490515050417
30
0
40
0.99999999999999645
210
0
220
0
230
1
100
AcDbArc
50
-90
51
0
0
ARC
5
128
100
AcDbEntity
8
0
100
AcDbCircle
10
83.308676579577252
20
166.93298907203285
30
0
40
1.0000000000000497
210
0
220
0
230
1
100
AcDbArc
50
90.000000000003254
51
180
0
ARC
5
129
100
AcDbEntity
8
0
100
AcDbCircle
10
83.308676579577181
20
168.93298907203297
30
0
40
1.0000000000000497
210
0
220
0
230
1
100
AcDbArc
50
270.00000000000244
51
360
0
ARC
5
130
100
AcDbEntity
8
0
100
AcDbCircle
10
83.308676579577252
20
169.09394711126853
30
0
40
0.99999999999997868
210
0
220
0
230
1
100
AcDbArc
50
0
51
90
0
ARC
5
131
100
AcDbEntity
8
0
100
AcDbCircle
10
83.308676579577224
20
157.30490515050417
30
0
40
0.99999999999999645
210
0
220
-0
230
1
100
AcDbArc
50
0
51
90
0
ARC
5
132
100
AcDbEntity
8
0
100
AcDbCircle
10
83.308676579577238
20
157.14394711126852
30
0
40
0.99999999999997868
210
0
220
0
230
1
100
AcDbArc
50
-90.00000000000081
51
0
0
ARC
5
133
100
AcDbEntity
8
0
100
AcDbCircle
10
83.308676579577195
20
159.30490515050417
30
0
40
0.99999999999999645
210
0
220
0
230
1
100
AcDbArc
50
180
51
270
0
LINE
5
134
100
AcDbEntity
8
0
100
AcDbLine
10
26.483676586952917
20
137.06436225539778
30
0
11
26.483676586952942
21
137.22532029463338
31
0
0
ARC
5
135
100
AcDbEntity
8
0
100
AcDbCircle
10
27.483676586952932
20
125.27532029463342
30
0
40
0.99999999999998757
210
0
220
0
230
1
100
AcDbArc
50
180
51
270.0000000000004
0
ARC
5
136
100
AcDbEntity
8
0
100
AcDbCircle
10
43.433676586952991
20
135.06436225539773
30
0
40
1.0000000000000497
210
0
220
0
230
1
100
AcDbArc
50
90.000000000003254
51
180
0
ARC
5
137
100
AcDbEntity
8
0
100
AcDbCircle
10
27.483676586952946
20
127.43627833386904
30
0
40
0.99999999999999645
210
0
220
0
230
1
100
AcDbArc
50
-90
51
0
0
LINE
5
138
100
AcDbEntity
8
0
100
AcDbLine
10
42.433676586952942
20
135.06436225539778
30
0
11
42.433676586952942
21
127.43627833386904
31
0
0
LINE
5
139
100
AcDbEntity
8
0
100
AcDbLine
10
27.483676586952939
20
124.27532029463343
30
0
11
43.433676586952956
21
124.27532029463342
31
0
0
LINE
5
140
100
AcDbEntity
8
0
100
AcDbLine
10
28.483676586952946
20
127.43627833386904
30
0
11
28.483676586952946
21
135.06436225539778
31
0
0
LINE
5
141
100
AcDbEntity
8
0
100
AcDbLine
10
26.483676586952942
20
125.43627833386905
30
0
11
26.483676586952942
21
125.27532029463342
31
0
0
ARC
5
142
100
AcDbEntity
8
0
100
AcDbCircle
10
27.483676586952939
20
125.43627833386905
30
0
40
0.99999999999999645
210
0
220
-0
230
1
100
AcDbArc
50
90
51
180
0
LINE
5
143
100
AcDbEntity
8
0
100
AcDbLine
10
44.433676586952949
20
125.43627833386905
30
0
11
44.433676586952949
21
125.27532029463342
31
0
0
ARC
5
144
100
AcDbEntity
8
0
100
AcDbCircle
10
27.483676586953003
20
137.06436225539787
30
0
40
1.0000000000000853
210
0
220
0
230
1
100
AcDbArc
50
180
51
269.99999999999636
0
LINE
5
145
100
AcDbEntity
8
0
100
AcDbLine
10
44.43367658695297
20
137.06436225539778
30
0
11
44.43367658695297
21
137.22532029463338
31
0
0
LINE
5
146
100
AcDbEntity
8
0
100
AcDbLine
10
27.483676586952939
20
138.22532029463338
30
0
11
43.433676586952991
21
138.22532029463338
31
0
0
ARC
5
147
100
AcDbEntity
8
0
100
AcDbCircle
10
27.483676586952967
20
137.22532029463338
30
0
40
1.0000000000000142
210
0
220
0
230
1
100
AcDbArc
50
90.000000000001634
51
180
0
ARC
5
148
100
AcDbEntity
8
0
100
AcDbCircle
10
43.43367658695297
20
125.27532029463339
30
0
40
0.99999999999997868
210
0
220
0
230
1
100
AcDbArc
50
-90.00000000000081
51
0
0
ARC
5
149
100
AcDbEntity
8
0
100
AcDbCircle
10
43.433676586952991
20
137.22532029463341
30
0
40
0.99999999999997868
210
0
220
0
230
1
100
AcDbArc
50
0
51
90
0
ARC
5
150
100
AcDbEntity
8
0
100
AcDbCircle
10
43.433676586952956
20
125.43627833386905
30
0
40
0.99999999999999645
210
0
220
-0
230
1
100
AcDbArc
50
0
51
90
0
ARC
5
151
100
AcDbEntity
8
0
100
AcDbCircle
10
43.433676586952934
20
127.43627833386904
30
0
40
0.99999999999999645
210
0
220
0
230
1
100
AcDbArc
50
180
51
270
0
ARC
5
152
100
AcDbEntity
8
0
100
AcDbCircle
10
27.483676586952896
20
135.06436225539773
30
0
40
1.0000000000000497
210
0
220
-0
230
1
100
AcDbArc
50
0
51
89.999999999997144
0
ARC
5
153
100
AcDbEntity
8
0
100
AcDbCircle
10
43.43367658695292
20
137.06436225539784
30
0
40
1.0000000000000497
210
0
220
0
230
1
100
AcDbArc
50
270.00000000000205
51
360
0
ARC
5
154
100
AcDbEntity
8
0
100
AcDbCircle
10
76.933676591234274
20
137.22532030885742
30
0
40
0.99999999999997868
210
0
220
0
230
1
100
AcDbArc
50
0
51
90
0
ARC
5
155
100
AcDbEntity
8
0
100
AcDbCircle
10
76.933676591234232
20
127.43627834809304
30
0
40
0.99999999999999645
210
0
220
0
230
1
100
AcDbArc
50
180
51
270
0
LINE
5
156
100
AcDbEntity
8
0
100
AcDbLine
10
59.983676591234236
20
125.43627834809305
30
0
11
59.983676591234236
21
125.2753203088574
31
0
0
ARC
5
157
100
AcDbEntity
8
0
100
AcDbCircle
10
76.933676591234246
20
125.43627834809305
30
0
40
0.99999999999999645
210
0
220
-0
230
1
100
AcDbArc
50
0
51
90
0
LINE
5
158
100
AcDbEntity
8
0
100
AcDbLine
10
77.93367659123426
20
137.0643622696218
30
0
11
77.93367659123426
21
137.22532030885736
31
0
0
LINE
5
159
100
AcDbEntity
8
0
100
AcDbLine
10
61.983676591234236
20
127.43627834809304
30
0
11
61.983676591234236
21
135.0643622696218
31
0
0
LINE
5
160
100
AcDbEntity
8
0
100
AcDbLine
10
59.983676591234207
20
137.0643622696218
30
0
11
59.983676591234236
21
137.22532030885736
31
0
0
ARC
5
161
100
AcDbEntity
8
0
100
AcDbCircle
10
76.933676591234274
20
135.06436226962171
30
0
40
1.0000000000000497
210
0
220
0
230
1
100
AcDbArc
50
90.000000000002444
51
180
0
LINE
5
162
100
AcDbEntity
8
0
100
AcDbLine
10
75.933676591234232
20
135.0643622696218
30
0
11
75.933676591234232
21
127.43627834809304
31
0
0
ARC
5
163
100
AcDbEntity
8
0
100
AcDbCircle
10
76.933676591234217
20
137.06436226962182
30
0
40
1.0000000000000497
210
0
220
0
230
1
100
AcDbArc
50
270.00000000000159
51
360
0
ARC
5
164
100
AcDbEntity
8
0
100
AcDbCircle
10
60.983676591234229
20
125.43627834809305
30
0
40
0.99999999999999645
210
0
220
-0
230
1
100
AcDbArc
50
90
51
180
0
ARC
5
165
100
AcDbEntity
8
0
100
AcDbCircle
10
60.983676591234222
20
125.2753203088574
30
0
40
0.99999999999998757
210
0
220
0
230
1
100
AcDbArc
50
180
51
270.0000000000004
0
ARC
5
166
100
AcDbEntity
8
0
100
AcDbCircle
10
60.983676591234186
20
135.06436226962171
30
0
40
1.0000000000000497
210
0
220
-0
230
1
100
AcDbArc
50
0
51
89.999999999996746
0
LINE
5
167
100
AcDbEntity
8
0
100
AcDbLine
10
60.983676591234229
20
138.22532030885739
30
0
11
76.933676591234274
21
138.22532030885739
31
0
0
LINE
5
168
100
AcDbEntity
8
0
100
AcDbLine
10
60.983676591234229
20
124.27532030885743
30
0
11
76.933676591234246
21
124.27532030885742
31
0
0
LINE
5
169
100
AcDbEntity
8
0
100
AcDbLine
10
77.933676591234246
20
125.43627834809305
30
0
11
77.933676591234246
21
125.2753203088574
31
0
0
ARC
5
170
100
AcDbEntity
8
0
100
AcDbCircle
10
60.983676591234243
20
127.43627834809304
30
0
40
0.99999999999999645
210
0
220
0
230
1
100
AcDbArc
50
-90
51
0
0
ARC
5
171
100
AcDbEntity
8
0
100
AcDbCircle
10
60.983676591234293
20
137.06436226962185
30
0
40
1.0000000000000853
210
0
220
0
230
1
100
AcDbArc
50
180
51
269.99999999999636
0
ARC
5
172
100
AcDbEntity
8
0
100
AcDbCircle
10
76.93367659123426
20
125.27532030885739
30
0
40
0.99999999999997868
210
0
220
0
230
1
100
AcDbArc
50
-90.00000000000081
51
0
0
ARC
5
173
100
AcDbEntity
8
0
100
AcDbCircle
10
60.983676591234257
20
137.22532030885736
30
0
40
1.0000000000000142
210
0
220
0
230
1
100
AcDbArc
50
90.000000000001634
51
180
0
ARC
5
174
100
AcDbEntity
8
0
100
AcDbCircle
10
91.962500002955139
20
124.3143622687798
30
0
40
1.0000000000000853
210
0
220
0
230
1
100
AcDbArc
50
180
51
269.99999999999591
0
ARC
5
175
100
AcDbEntity
8
0
100
AcDbCircle
10
107.91250000295513
20
122.31436226877967
30
0
40
1.0000000000000497
210
0
220
0
230
1
100
AcDbArc
50
90.000000000003254
51
180
0
LINE
5
176
100
AcDbEntity
8
0
100
AcDbLine
10
108.91250000295511
20
124.31436226877975
30
0
11
108.91250000295511
21
124.47532030801533
31
0
0
ARC
5
177
100
AcDbEntity
8
0
100
AcDbCircle
10
107.91250000295508
20
112.686278347251
30
0
40
0.99999999999999645
210
0
220
-0
230
1
100
AcDbArc
50
0
51
90
0
ARC
5
178
100
AcDbEntity
8
0
100
AcDbCircle
10
91.962500002955096
20
124.47532030801533
30
0
40
1.0000000000000142
210
0
220
0
230
1
100
AcDbArc
50
90.000000000001634
51
180
0
LINE
5
179
100
AcDbEntity
8
0
100
AcDbLine
10
90.962500002955053
20
124.31436226877975
30
0
11
90.962500002955096
21
124.47532030801533
31
0
0
ARC
5
180
100
AcDbEntity
8
0
100
AcDbCircle
10
107.91250000295507
20
114.68627834725099
30
0
40
0.99999999999999645
210
0
220
0
230
1
100
AcDbArc
50
180
51
270
0
ARC
5
181
100
AcDbEntity
8
0
100
AcDbCircle
10
107.91250000295513
20
124.47532030801537
30
0
40
0.99999999999997868
210
0
220
0
230
1
100
AcDbArc
50
0
51
90
0
LINE
5
182
100
AcDbEntity
8
0
100
AcDbLine
10
91.962500002955068
20
111.52532030801538
30
0
11
107.91250000295508
21
111.52532030801537
31
0
0
LINE
5
183
100
AcDbEntity
8
0
100
AcDbLine
10
92.962500002955082
20
114.68627834725099
30
0
11
92.962500002955082
21
122.31436226877975
31
0
0
ARC
5
184
100
AcDbEntity
8
0
100
AcDbCircle
10
107.91250000295511
20
112.52532030801534
30
0
40
0.99999999999997868
210
0
220
0
230
1
100
AcDbArc
50
-90.000000000001634
51
0
0
LINE
5
185
100
AcDbEntity
8
0
100
AcDbLine
10
91.962500002955068
20
125.47532030801534
30
0
11
107.91250000295513
21
125.47532030801534
31
0
0
ARC
5
186
100
AcDbEntity
8
0
100
AcDbCircle
10
91.962500002955068
20
112.52532030801535
30
0
40
0.99999999999997868
210
0
220
0
230
1
100
AcDbArc
50
180
51
270
0
LINE
5
187
100
AcDbEntity
8
0
100
AcDbLine
10
106.91250000295508
20
122.31436226877975
30
0
11
106.91250000295508
21
114.68627834725099
31
0
0
LINE
5
188
100
AcDbEntity
8
0
100
AcDbLine
10
90.962500002955096
20
112.686278347251
30
0
11
90.962500002955096
21
112.52532030801535
31
0
0
LINE
5
189
100
AcDbEntity
8
0
100
AcDbLine
10
108.91250000295508
20
112.686278347251
30
0
11
108.91250000295508
21
112.52532030801535
31
0
0
ARC
5
190
100
AcDbEntity
8
0
100
AcDbCircle
10
91.962500002955039
20
122.31436226877967
30
0
40
1.0000000000000497
210
0
220
-0
230
1
100
AcDbArc
50
0
51
89.999999999997556
0
ARC
5
191
100
AcDbEntity
8
0
100
AcDbCircle
10
107.91250000295506
20
124.31436226877977
30
0
40
1.0000000000000497
210
0
220
0
230
1
100
AcDbArc
50
270.00000000000159
51
360
0
ARC
5
192
100
AcDbEntity
8
0
100
AcDbCircle
10
91.962500002955068
20
112.686278347251
30
0
40
0.99999999999999645
210
0
220
-0
230
1
100
AcDbArc
50
90
51
180
0
ARC
5
193
100
AcDbEntity
8
0
100
AcDbCircle
10
91.962500002955082
20
114.68627834725099
30
0
40
0.99999999999999645
210
0
220
0
230
1
100
AcDbArc
50
-90
51
0
0
ARC
5
194
100
AcDbEntity
8
0
100
AcDbCircle
10
120.66250000271731
20
59.68627838930729
30
0
40
0.99999999999999645
210
0
220
0
230
1
100
AcDbArc
50
180
51
270
0
ARC
5
195
100
AcDbEntity
8
0
100
AcDbCircle
10
120.66250000271734
20
57.686278389307297
30
0
40
0.99999999999999645
210
0
220
-0
230
1
100
AcDbArc
50
0
51
90
0
LINE
5
196
100
AcDbEntity
8
0
100
AcDbLine
10
104.71250000271731
20
70.475320350071641
30
0
11
120.66250000271737
21
70.475320350071641
31
0
0
ARC
5
197
100
AcDbEntity
8
0
100
AcDbCircle
10
104.71250000271735
20
69.475320350071627
30
0
40
1.0000000000000142
210
0
220
0
230
1
100
AcDbArc
50
90.000000000002444
51
180
0
LINE
5
198
100
AcDbEntity
8
0
100
AcDbLine
10
119.66250000271731
20
67.314362310836046
30
0
11
119.66250000271731
21
59.68627838930729
31
0
0
ARC
5
199
100
AcDbEntity
8
0
100
AcDbCircle
10
104.71250000271738
20
69.314362310836103
30
0
40
1.0000000000000853
210
0
220
0
230
1
100
AcDbArc
50
180
51
269.99999999999591
0
LINE
5
200
100
AcDbEntity
8
0
100
AcDbLine
10
103.71250000271729
20
69.314362310836032
30
0
11
103.71250000271732
21
69.475320350071627
31
0
0
ARC
5
201
100
AcDbEntity
8
0
100
AcDbCircle
10
120.66250000271737
20
67.314362310835975
30
0
40
1.0000000000000497
210
0
220
0
230
1
100
AcDbArc
50
90.000000000003254
51
180
0
ARC
5
202
100
AcDbEntity
8
0
100
AcDbCircle
10
104.71250000271726
20
67.314362310835975
30
0
40
1.0000000000000497
210
0
220
-0
230
1
100
AcDbArc
50
0
51
89.999999999996746
0
LINE
5
203
100
AcDbEntity
8
0
100
AcDbLine
10
104.71250000271731
20
56.525320350071681
30
0
11
120.66250000271734
21
56.525320350071659
31
0
0
ARC
5
204
100
AcDbEntity
8
0
100
AcDbCircle
10
104.71250000271731
20
57.686278389307297
30
0
40
0.99999999999999645
210
0
220
-0
230
1
100
AcDbArc
50
90
51
180
0
ARC
5
205
100
AcDbEntity
8
0
100
AcDbCircle
10
104.71250000271731
20
57.525320350071652
30
0
40
0.99999999999997868
210
0
220
0
230
1
100
AcDbArc
50
180
51
270
0
LINE
5
206
100
AcDbEntity
8
0
100
AcDbLine
10
103.71250000271732
20
57.686278389307297
30
0
11
103.71250000271732
21
57.525320350071652
31
0
0
ARC
5
207
100
AcDbEntity
8
0
100
AcDbCircle
10
104.71250000271732
20
59.68627838930729
30
0
40
0.99999999999999645
210
0
220
0
230
1
100
AcDbArc
50
-90
51
0
0
LINE
5
208
100
AcDbEntity
8
0
100
AcDbLine
10
121.66250000271732
20
57.686278389307297
30
0
11
121.66250000271732
21
57.525320350071652
31
0
0
LINE
5
209
100
AcDbEntity
8
0
100
AcDbLine
10
121.66250000271734
20
69.314362310836032
30
0
11
121.66250000271734
21
69.475320350071627
31
0
0
ARC
5
210
100
AcDbEntity
8
0
100
AcDbCircle
10
120.66250000271737
20
69.475320350071655
30
0
40
0.99999999999997868
210
0
220
0
230
1
100
AcDbArc
50
0
51
90
0
ARC
5
211
100
AcDbEntity
8
0
100
AcDbCircle
10
120.66250000271735
20
57.525320350071638
30
0
40
0.99999999999997868
210
0
220
0
230
1
100
AcDbArc
50
-90.00000000000081
51
0
0
ARC
5
212
100
AcDbEntity
8
0
100
AcDbCircle
10
120.66250000271729
20
69.314362310836074
30
0
40
1.0000000000000497
210
0
220
0
230
1
100
AcDbArc
50
270.00000000000244
51
360
0
LINE
5
213
100
AcDbEntity
8
0
100
AcDbLine
10
105.71250000271732
20
59.68627838930729
30
0
11
105.71250000271732
21
67.314362310836046
31
0
0
ARC
5
214
100
AcDbEntity
8
0
100
AcDbCircle
10
133.39999999998514
20
159.43627834763143
30
0
40
0.99999999999999645
210
0
220
-0
230
1
100
AcDbArc
50
90
51
180
0
ARC
5
215
100
AcDbEntity
8
0
100
AcDbCircle
10
133.39999999998514
20
159.27532030839581
30
0
40
0.99999999999999645
210
0
220
0
230
1
100
AcDbArc
50
180
51
270
0
ARC
5
216
100
AcDbEntity
8
0
100
AcDbCircle
10
149.34999999998513
20
171.0643622691602
30
0
40
1.0000000000000497
210
0
220
0
230
1
100
AcDbArc
50
270.00000000000159
51
360
0
ARC
5
217
100
AcDbEntity
8
0
100
AcDbCircle
10
149.34999999998519
20
169.06436226916011
30
0
40
1.0000000000000497
210
0
220
0
230
1
100
AcDbArc
50
90.000000000003254
51
180
0
ARC
5
218
100
AcDbEntity
8
0
100
AcDbCircle
10
133.39999999998514
20
161.43627834763146
30
0
40
1.0000000000000142
210
0
220
0
230
1
100
AcDbArc
50
-90
51
0
0
ARC
5
219
100
AcDbEntity
8
0
100
AcDbCircle
10
149.34999999998519
20
171.22532030839579
30
0
40
0.99999999999997868
210
0
220
0
230
1
100
AcDbArc
50
0
51
90
0
ARC
5
220
100
AcDbEntity
8
0
100
AcDbCircle
10
149.34999999998519
20
159.27532030839578
30
0
40
0.99999999999997868
210
0
220
0
230
1
100
AcDbArc
50
-90.000000000001634
51
0
0
LINE
5
221
100
AcDbEntity
8
0
100
AcDbLine
10
150.34999999998516
20
159.43627834763143
30
0
11
150.34999999998516
21
159.27532030839581
31
0
0
ARC
5
222
100
AcDbEntity
8
0
100
AcDbCircle
10
149.34999999998513
20
161.43627834763146
30
0
40
0.99999999999999645
210
0
220
0
230
1
100
AcDbArc
50
180
51
270
0
LINE
5
223
100
AcDbEntity
8
0
100
AcDbLine
10
134.39999999998514
20
161.43627834763146
30
0
11
134.39999999998514
21
169.06436226916017
31
0
0
ARC
5
224
100
AcDbEntity
8
0
100
AcDbCircle
10
133.3999999999852
20
171.06436226916026
30
0
40
1.0000000000000853
210
0
220
0
230
1
100
AcDbArc
50
180
51
269.99999999999676
0
LINE
5
225
100
AcDbEntity
8
0
100
AcDbLine
10
133.39999999998514
20
172.22532030839577
30
0
11
149.34999999998519
21
172.22532030839577
31
0
0
LINE
5
226
100
AcDbEntity
8
0
100
AcDbLine
10
132.39999999998514
20
159.43627834763143
30
0
11
132.39999999998514
21
159.27532030839581
31
0
0
LINE
5
227
100
AcDbEntity
8
0
100
AcDbLine
10
133.39999999998514
20
158.27532030839581
30
0
11
149.34999999998516
21
158.27532030839581
31
0
0
LINE
5
228
100
AcDbEntity
8
0
100
AcDbLine
10
150.34999999998516
20
171.06436226916017
30
0
11
150.34999999998516
21
171.22532030839577
31
0
0
LINE
5
229
100
AcDbEntity
8
0
100
AcDbLine
10
148.34999999998513
20
169.06436226916017
30
0
11
148.34999999998513
21
161.43627834763146
31
0
0
ARC
5
230
100
AcDbEntity
8
0
100
AcDbCircle
10
149.34999999998516
20
159.43627834763143
30
0
40
0.99999999999999645
210
0
220
-0
230
1
100
AcDbArc
50
0
51
90
0
ARC
5
231
100
AcDbEntity
8
0
100
AcDbCircle
10
133.39999999998517
20
171.22532030839577
30
0
40
1.0000000000000142
210
0
220
0
230
1
100
AcDbArc
50
90.000000000001634
51
180
0
ARC
5
232
100
AcDbEntity
8
0
100
AcDbCircle
10
133.39999999998508
20
169.06436226916011
30
0
40
1.0000000000000497
210
0
220
-0
230
1
100
AcDbArc
50
0
51
89.999999999996746
0
LINE
5
233
100
AcDbEntity
8
0
100
AcDbLine
10
132.39999999998511
20
171.06436226916017
30
0
11
132.39999999998514
21
171.22532030839577
31
0
0
LINE
5
234
100
AcDbEntity
8
0
100
AcDbLine
10
171.91296598886157
20
170.29507493582651
30
0
11
171.91296598886157
21
170.13411689659085
31
0
0
LINE
5
235
100
AcDbEntity
8
0
100
AcDbLine
10
171.91296598886154
20
181.92315885735525
30
0
11
171.91296598886157
21
182.08411689659084
31
0
0
LINE
5
236
100
AcDbEntity
8
0
100
AcDbLine
10
172.9129659888616
20
169.13411689659088
30
0
11
188.86296598886162
21
169.13411689659085
31
0
0
LINE
5
237
100
AcDbEntity
8
0
100
AcDbLine
10
189.86296598886162
20
181.92315885735525
30
0
11
189.86296598886162
21
182.08411689659084
31
0
0
ARC
5
238
100
AcDbEntity
8
0
100
AcDbCircle
10
188.86296598886159
20
172.29507493582651
30
0
40
0.99999999999997868
210
0
220
0
230
1
100
AcDbArc
50
180
51
270
0
ARC
5
239
100
AcDbEntity
8
0
100
AcDbCircle
10
172.9129659888616
20
170.29507493582651
30
0
40
1.0000000000000142
210
0
220
-0
230
1
100
AcDbArc
50
90
51
180
0
LINE
5
240
100
AcDbEntity
8
0
100
AcDbLine
10
189.86296598886159
20
170.29507493582651
30
0
11
189.86296598886159
21
170.13411689659085
31
0
0
ARC
5
241
100
AcDbEntity
8
0
100
AcDbCircle
10
172.91296598886157
20
170.13411689659085
30
0
40
0.99999999999997868
210
0
220
0
230
1
100
AcDbArc
50
180
51
270.00000000000159
0
ARC
5
242
100
AcDbEntity
8
0
100
AcDbCircle
10
188.86296598886162
20
170.29507493582651
30
0
40
0.99999999999997868
210
0
220
-0
230
1
100
AcDbArc
50
0
51
90
0
ARC
5
243
100
AcDbEntity
8
0
100
AcDbCircle
10
172.91296598886163
20
181.9231588573553
30
0
40
1.0000000000000853
210
0
220
0
230
1
100
AcDbArc
50
180
51
269.99999999999835
0
ARC
5
244
100
AcDbEntity
8
0
100
AcDbCircle
10
188.86296598886162
20
170.13411689659085
30
0
40
1.0000000000000142
210
0
220
0
230
1
100
AcDbArc
50
-90
51
0
0
ARC
5
245
100
AcDbEntity
8
0
100
AcDbCircle
10
188.86296598886162
20
182.08411689659087
30
0
40
1.0000000000000142
210
0
220
0
230
1
100
AcDbArc
50
0
51
90
0
LINE
5
246
100
AcDbEntity
8
0
100
AcDbLine
10
173.91296598886157
20
172.29507493582651
30
0
11
173.91296598886157
21
179.92315885735525
31
0
0
ARC
5
247
100
AcDbEntity
8
0
100
AcDbCircle
10
172.91296598886163
20
182.08411689659084
30
0
40
1.0000000000000142
210
0
220
0
230
1
100
AcDbArc
50
90.000000000001634
51
180
0
ARC
5
248
100
AcDbEntity
8
0
100
AcDbCircle
10
172.9129659888616
20
172.29507493582651
30
0
40
1.0000000000000142
210
0
220
0
230
1
100
AcDbArc
50
-90
51
0
0
ARC
5
249
100
AcDbEntity
8
0
100
AcDbCircle
10
188.86296598886156
20
181.92315885735528
30
0
40
1.0000000000000497
210
0
220
0
230
1
100
AcDbArc
50
270.00000000000324
51
360
0
ARC
5
250
100
AcDbEntity
8
0
100
AcDbCircle
10
188.86296598886162
20
179.92315885735519
30
0
40
1.0000000000000497
210
0
220
0
230
1
100
AcDbArc
50
90.000000000001634
51
180
0
ARC
5
251
100
AcDbEntity
8
0
100
AcDbCircle
10
172.91296598886157
20
179.92315885735519
30
0
40
1.0000000000000142
210
0
220
-0
230
1
100
AcDbArc
50
0
51
89.99999999999838
0
LINE
5
252
100
AcDbEntity
8
0
100
AcDbLine
10
187.86296598886162
20
179.92315885735525
30
0
11
187.86296598886162
21
172.29507493582651
31
0
0
LINE
5
253
100
AcDbEntity
8
0
100
AcDbLine
10
172.9129659888616
20
183.08411689659084
30
0
11
188.86296598886162
21
183.08411689659084
31
0
0
LINE
5
254
100
AcDbEntity
8
0
100
AcDbLine
10
129.21250000000089
20
137.06436226913473
30
0
11
129.21250000000089
21
137.22532030837033
31
0
0
LINE
5
255
100
AcDbEntity
8
0
100
AcDbLine
10
130.21250000000092
20
124.2753203083704
30
0
11
146.1625000000009
21
124.27532030837037
31
0
0
ARC
5
256
100
AcDbEntity
8
0
100
AcDbCircle
10
130.21250000000086
20
135.06436226913468
30
0
40
1.0000000000000497
210
0
220
-0
230
1
100
AcDbArc
50
0
51
89.999999999996746
0
ARC
5
257
100
AcDbEntity
8
0
100
AcDbCircle
10
130.21250000000097
20
137.06436226913482
30
0
40
1.0000000000000853
210
0
220
0
230
1
100
AcDbArc
50
180
51
269.99999999999676
0
LINE
5
258
100
AcDbEntity
8
0
100
AcDbLine
10
147.16250000000093
20
137.06436226913473
30
0
11
147.16250000000093
21
137.22532030837033
31
0
0
ARC
5
259
100
AcDbEntity
8
0
100
AcDbCircle
10
146.1625000000009
20
125.43627834760601
30
0
40
0.99999999999999645
210
0
220
-0
230
1
100
AcDbArc
50
0
51
90
0
ARC
5
260
100
AcDbEntity
8
0
100
AcDbCircle
10
130.21250000000089
20
125.27532030837037
30
0
40
0.99999999999999645
210
0
220
0
230
1
100
AcDbArc
50
180
51
270.00000000000159
0
ARC
5
261
100
AcDbEntity
8
0
100
AcDbCircle
10
130.21250000000092
20
137.22532030837033
30
0
40
1.0000000000000142
210
0
220
0
230
1
100
AcDbArc
50
90
51
180
0
LINE
5
262
100
AcDbEntity
8
0
100
AcDbLine
10
130.21250000000092
20
138.22532030837036
30
0
11
146.16250000000096
21
138.22532030837036
31
0
0
LINE
5
263
100
AcDbEntity
8
0
100
AcDbLine
10
131.21250000000092
20
127.43627834760601
30
0
11
131.21250000000092
21
135.06436226913476
31
0
0
ARC
5
264
100
AcDbEntity
8
0
100
AcDbCircle
10
146.16250000000093
20
125.27532030837035
30
0
40
0.99999999999997868
210
0
220
0
230
1
100
AcDbArc
50
-90.000000000001634
51
0
0
LINE
5
265
100
AcDbEntity
8
0
100
AcDbLine
10
147.1625000000009
20
125.43627834760601
30
0
11
147.1625000000009
21
125.27532030837037
31
0
0
ARC
5
266
100
AcDbEntity
8
0
100
AcDbCircle
10
146.16250000000088
20
137.06436226913479
30
0
40
1.0000000000000497
210
0
220
0
230
1
100
AcDbArc
50
270.00000000000159
51
360
0
ARC
5
267
100
AcDbEntity
8
0
100
AcDbCircle
10
130.21250000000092
20
125.43627834760601
30
0
40
0.99999999999999645
210
0
220
-0
230
1
100
AcDbArc
50
90
51
180
0
ARC
5
268
100
AcDbEntity
8
0
100
AcDbCircle
10
146.1625000000009
20
127.43627834760601
30
0
40
0.99999999999999645
210
0
220
0
230
1
100
AcDbArc
50
180
51
270
0
ARC
5
269
100
AcDbEntity
8
0
100
AcDbCircle
10
146.16250000000096
20
137.22532030837039
30
0
40
0.99999999999997868
210
0
220
0
230
1
100
AcDbArc
50
0
51
90
0
ARC
5
270
100
AcDbEntity
8
0
100
AcDbCircle
10
146.16250000000096
20
135.06436226913468
30
0
40
1.0000000000000497
210
0
220
0
230
1
100
AcDbArc
50
90.000000000003254
51
180
0
ARC
5
271
100
AcDbEntity
8
0
100
AcDbCircle
10
130.21250000000092
20
127.43627834760601
30
0
40
0.99999999999999645
210
0
220
0
230
1
100
AcDbArc
50
-90
51
0
0
LINE
5
272
100
AcDbEntity
8
0
100
AcDbLine
10
145.1625000000009
20
135.06436226913476
30
0
11
145.1625000000009
21
127.43627834760601
31
0
0
LINE
5
273
100
AcDbEntity
8
0
100
AcDbLine
10
129.21250000000089
20
125.43627834760601
30
0
11
129.21250000000089
21
125.27532030837037
31
0
0
LINE
5
274
100
AcDbEntity
8
0
100
AcDbLine
10
176.68150000001447
20
147.81436226911046
30
0
11
176.68150000001447
21
140.18627834758172
31
0
0
LINE
5
275
100
AcDbEntity
8
0
100
AcDbLine
10
162.73150000001451
20
140.18627834758172
30
0
11
162.73150000001451
21
147.81436226911046
31
0
0
LINE
5
276
100
AcDbEntity
8
0
100
AcDbLine
10
178.68150000001449
20
138.18627834758172
30
0
11
178.68150000001449
21
138.0253203083461
31
0
0
ARC
5
277
100
AcDbEntity
8
0
100
AcDbCircle
10
161.73150000001448
20
138.18627834758172
30
0
40
0.99999999999999645
210
0
220
-0
230
1
100
AcDbArc
50
90
51
180
0
ARC
5
278
100
AcDbEntity
8
0
100
AcDbCircle
10
161.73150000001442
20
147.8143622691104
30
0
40
1.0000000000000853
210
0
220
-0
230
1
100
AcDbArc
50
0
51
89.999999999996746
0
LINE
5
279
100
AcDbEntity
8
0
100
AcDbLine
10
160.73150000001448
20
138.18627834758172
30
0
11
160.73150000001448
21
138.0253203083461
31
0
0
ARC
5
280
100
AcDbEntity
8
0
100
AcDbCircle
10
161.73150000001456
20
149.81436226911055
30
0
40
1.0000000000000853
210
0
220
0
230
1
100
AcDbArc
50
180
51
269.99999999999511
0
ARC
5
281
100
AcDbEntity
8
0
100
AcDbCircle
10
177.68150000001447
20
138.18627834758172
30
0
40
1.0000000000000142
210
0
220
-0
230
1
100
AcDbArc
50
0
51
90
0
ARC
5
282
100
AcDbEntity
8
0
100
AcDbCircle
10
177.68150000001447
20
140.18627834758172
30
0
40
1.0000000000000142
210
0
220
0
230
1
100
AcDbArc
50
180
51
270
0
ARC
5
283
100
AcDbEntity
8
0
100
AcDbCircle
10
177.68150000001455
20
147.8143622691104
30
0
40
1.0000000000000497
210
0
220
0
230
1
100
AcDbArc
50
90.000000000004889
51
180
0
LINE
5
284
100
AcDbEntity
8
0
100
AcDbLine
10
160.73150000001448
20
149.81436226911046
30
0
11
160.73150000001448
21
149.97532030834606
31
0
0
ARC
5
285
100
AcDbEntity
8
0
100
AcDbCircle
10
161.73150000001448
20
149.97532030834606
30
0
40
1.0000000000000142
210
0
220
-0
230
1
100
AcDbArc
50
90
51
180
0
ARC
5
286
100
AcDbEntity
8
0
100
AcDbCircle
10
161.73150000001448
20
140.18627834758172
30
0
40
0.99999999999999645
210
0
220
0
230
1
100
AcDbArc
50
-90
51
0
0
LINE
5
287
100
AcDbEntity
8
0
100
AcDbLine
10
161.73150000001448
20
150.97532030834606
30
0
11
177.68150000001455
21
150.97532030834606
31
0
0
ARC
5
288
100
AcDbEntity
8
0
100
AcDbCircle
10
177.68150000001455
20
149.97532030834608
30
0
40
0.99999999999994316
210
0
220
0
230
1
100
AcDbArc
50
0
51
90
0
ARC
5
289
100
AcDbEntity
8
0
100
AcDbCircle
10
177.68150000001447
20
149.81436226911052
30
0
40
1.0000000000000497
210
0
220
0
230
1
100
AcDbArc
50
270
51
360
0
ARC
5
290
100
AcDbEntity
8
0
100
AcDbCircle
10
161.73150000001448
20
138.0253203083461
30
0
40
1.0000000000000142
210
0
220
0
230
1
100
AcDbArc
50
180
51
270
0
LINE
5
291
100
AcDbEntity
8
0
100
AcDbLine
10
178.68150000001449
20
149.81436226911046
30
0
11
178.68150000001449
21
149.97532030834606
31
0
0
LINE
5
292
100
AcDbEntity
8
0
100
AcDbLine
10
161.73150000001448
20
137.02532030834612
30
0
11
177.68150000001447
21
137.0253203083461
31
0
0
ARC
5
293
100
AcDbEntity
8
0
100
AcDbCircle
10
177.68150000001452
20
138.02532030834607
30
0
40
0.99999999999997868
210
0
220
0
230
1
100
AcDbArc
50
-90.000000000003254
51
0
0
LINE
5
294
100
AcDbEntity
8
0
100
AcDbLine
10
210.0784999993958
20
154.18936227017764
30
0
11
210.0784999993958
21
146.56127834864887
31
0
0
ARC
5
295
100
AcDbEntity
8
0
100
AcDbCircle
10
211.07849999939575
20
156.18936227017767
30
0
40
1.0000000000000497
210
0
220
0
230
1
100
AcDbArc
50
270.00000000000489
51
360
0
ARC
5
296
100
AcDbEntity
8
0
100
AcDbCircle
10
195.12849999939576
20
154.18936227017755
30
0
40
1.0000000000000142
210
0
220
-0
230
1
100
AcDbArc
50
0
51
89.99999999999838
0
ARC
5
297
100
AcDbEntity
8
0
100
AcDbCircle
10
195.12849999939584
20
156.1893622701777
30
0
40
1.0000000000000853
210
0
220
0
230
1
100
AcDbArc
50
180
51
269.99999999999676
0
ARC
5
298
100
AcDbEntity
8
0
100
AcDbCircle
10
211.07849999939583
20
154.18936227017755
30
0
40
1.0000000000000497
210
0
220
0
230
1
100
AcDbArc
50
90.000000000003254
51
180
0
ARC
5
299
100
AcDbEntity
8
0
100
AcDbCircle
10
211.07849999939583
20
156.35032030941323
30
0
40
1.0000000000000142
210
0
220
0
230
1
100
AcDbArc
50
0
51
90
0
LINE
5
300
100
AcDbEntity
8
0
100
AcDbLine
10
195.12849999939579
20
157.35032030941323
30
0
11
211.07849999939583
21
157.35032030941323
31
0
0
LINE
5
301
100
AcDbEntity
8
0
100
AcDbLine
10
212.07849999939583
20
156.18936227017764
30
0
11
212.07849999939583
21
156.35032030941321
31
0
0
ARC
5
302
100
AcDbEntity
8
0
100
AcDbCircle
10
195.12849999939584
20
156.35032030941321
30
0
40
1.0000000000000142
210
0
220
0
230
1
100
AcDbArc
50
90.000000000003254
51
180
0
LINE
5
303
100
AcDbEntity
8
0
100
AcDbLine
10
194.12849999939579
20
144.5612783486489
30
0
11
194.12849999939579
21
144.40032030941325
31
0
0
ARC
5
304
100
AcDbEntity
8
0
100
AcDbCircle
10
211.07849999939577
20
146.56127834864887
30
0
40
0.99999999999997868
210
0
220
0
230
1
100
AcDbArc
50
180
51
270
0
ARC
5
305
100
AcDbEntity
8
0
100
AcDbCircle
10
195.12849999939576
20
144.40032030941325
30
0
40
0.99999999999997868
210
0
220
0
230
1
100
AcDbArc
50
180
51
270.00000000000159
0
LINE
5
306
100
AcDbEntity
8
0
100
AcDbLine
10
194.12849999939573
20
156.18936227017764
30
0
11
194.12849999939579
21
156.35032030941321
31
0
0
LINE
5
307
100
AcDbEntity
8
0
100
AcDbLine
10
212.0784999993958
20
144.5612783486489
30
0
11
212.0784999993958
21
144.40032030941325
31
0
0
ARC
5
308
100
AcDbEntity
8
0
100
AcDbCircle
10
211.07849999939583
20
144.5612783486489
30
0
40
0.99999999999997868
210
0
220
-0
230
1
100
AcDbArc
50
0
51
90
0
ARC
5
309
100
AcDbEntity
8
0
100
AcDbCircle
10
195.12849999939579
20
144.5612783486489
30
0
40
0.99999999999999645
210
0
220
-0
230
1
100
AcDbArc
50
90
51
180
0
ARC
5
310
100
AcDbEntity
8
0
100
AcDbCircle
10
211.07849999939583
20
144.40032030941322
30
0
40
0.99999999999997868
210
0
220
0
230
1
100
AcDbArc
50
-90
51
0
0
ARC
5
311
100
AcDbEntity
8
0
100
AcDbCircle
10
195.12849999939579
20
146.56127834864887
30
0
40
0.99999999999999645
210
0
220
0
230
1
100
AcDbArc
50
-90
51
0
0
LINE
5
312
100
AcDbEntity
8
0
100
AcDbLine
10
195.12849999939579
20
143.40032030941327
30
0
11
211.07849999939583
21
143.40032030941325
31
0
0
LINE
5
313
100
AcDbEntity
8
0
100
AcDbLine
10
196.12849999939579
20
146.56127834864887
30
0
11
196.12849999939579
21
154.18936227017764
31
0
0
ARC
5
314
100
AcDbEntity
8
0
100
AcDbCircle
10
228.12849991654886
20
144.40032049505413
30
0
40
1.0000000000000142
210
0
220
0
230
1
100
AcDbArc
50
180
51
270
0
ARC
5
315
100
AcDbEntity
8
0
100
AcDbCircle
10
244.07849991654885
20
144.56127853428976
30
0
40
1.0000000000000142
210
0
220
-0
230
1
100
AcDbArc
50
0
51
90
0
LINE
5
316
100
AcDbEntity
8
0
100
AcDbLine
10
229.12849991654889
20
146.56127853428976
30
0
11
229.12849991654889
21
154.1893624558185
31
0
0
LINE
5
317
100
AcDbEntity
8
0
100
AcDbLine
10
243.07849991654882
20
154.1893624558185
30
0
11
243.07849991654882
21
146.56127853428976
31
0
0
LINE
5
318
100
AcDbEntity
8
0
100
AcDbLine
10
245.07849991654888
20
156.1893624558185
30
0
11
245.07849991654888
21
156.35032049505409
31
0
0
ARC
5
319
100
AcDbEntity
8
0
100
AcDbCircle
10
244.07849991654885
20
156.18936245581853
30
0
40
1.0000000000000497
210
0
220
0
230
1
100
AcDbArc
50
270
51
360
0
ARC
5
320
100
AcDbEntity
8
0
100
AcDbCircle
10
244.07849991654894
20
154.18936245581844
30
0
40
1.0000000000000497
210
0
220
0
230
1
100
AcDbArc
50
90.000000000004889
51
180
0
ARC
5
321
100
AcDbEntity
8
0
100
AcDbCircle
10
228.12849991654886
20
156.35032049505409
30
0
40
1.0000000000000142
210
0
220
-0
230
1
100
AcDbArc
50
90
51
180
0
LINE
5
322
100
AcDbEntity
8
0
100
AcDbLine
10
228.12849991654886
20
157.35032049505409
30
0
11
244.07849991654894
21
157.35032049505409
31
0
0
ARC
5
323
100
AcDbEntity
8
0
100
AcDbCircle
10
244.07849991654888
20
144.4003204950541
30
0
40
0.99999999999997868
210
0
220
0
230
1
100
AcDbArc
50
-90.000000000001634
51
0
0
LINE
5
324
100
AcDbEntity
8
0
100
AcDbLine
10
227.12849991654883
20
156.1893624558185
30
0
11
227.12849991654883
21
156.35032049505409
31
0
0
ARC
5
325
100
AcDbEntity
8
0
100
AcDbCircle
10
244.07849991654894
20
156.35032049505412
30
0
40
0.99999999999994316
210
0
220
0
230
1
100
AcDbArc
50
0
51
90
0
ARC
5
326
100
AcDbEntity
8
0
100
AcDbCircle
10
228.12849991654886
20
144.56127853428976
30
0
40
0.99999999999999645
210
0
220
-0
230
1
100
AcDbArc
50
90
51
180
0
ARC
5
327
100
AcDbEntity
8
0
100
AcDbCircle
10
244.07849991654885
20
146.56127853428976
30
0
40
1.0000000000000142
210
0
220
0
230
1
100
AcDbArc
50
180
51
270
0
ARC
5
328
100
AcDbEntity
8
0
100
AcDbCircle
10
228.12849991654878
20
154.18936245581844
30
0
40
1.0000000000000853
210
0
220
-0
230
1
100
AcDbArc
50
0
51
89.999999999995111
0
LINE
5
329
100
AcDbEntity
8
0
100
AcDbLine
10
228.12849991654886
20
143.40032049505413
30
0
11
244.07849991654885
21
143.40032049505413
31
0
0
LINE
5
330
100
AcDbEntity
8
0
100
AcDbLine
10
227.12849991654883
20
144.56127853428976
30
0
11
227.12849991654883
21
144.40032049505413
31
0
0
LINE
5
331
100
AcDbEntity
8
0
100
AcDbLine
10
245.07849991654888
20
144.56127853428976
30
0
11
245.07849991654888
21
144.40032049505413
31
0
0
ARC
5
332
100
AcDbEntity
8
0
100
AcDbCircle
10
228.12849991654886
20
146.56127853428976
30
0
40
0.99999999999999645
210
0
220
0
230
1
100
AcDbArc
50
-90
51
0
0
ARC
5
333
100
AcDbEntity
8
0
100
AcDbCircle
10
228.12849991654895
20
156.18936245581858
30
0
40
1.0000000000000853
210
0
220
0
230
1
100
AcDbArc
50
180
51
269.99999999999511
0
ARC
5
334
100
AcDbEntity
8
0
100
AcDbCircle
10
127.0250000000003
20
100.22532030837063
30
0
40
1.0000000000000142
210
0
220
0
230
1
100
AcDbArc
50
90.00000000000081
51
180
0
ARC
5
335
100
AcDbEntity
8
0
100
AcDbCircle
10
142.97500000000025
20
100.06436226913507
30
0
40
1.0000000000000497
210
0
220
0
230
1
100
AcDbArc
50
270.00000000000324
51
360
0
ARC
5
336
100
AcDbEntity
8
0
100
AcDbCircle
10
142.97500000000034
20
98.064362269134975
30
0
40
1.0000000000000497
210
0
220
0
230
1
100
AcDbArc
50
90.000000000003254
51
180
0
ARC
5
337
100
AcDbEntity
8
0
100
AcDbCircle
10
127.02500000000023
20
98.064362269134975
30
0
40
1.0000000000000497
210
0
220
-0
230
1
100
AcDbArc
50
0
51
89.999999999996746
0
ARC
5
338
100
AcDbEntity
8
0
100
AcDbCircle
10
142.97500000000028
20
90.43627834760629
30
0
40
0.99999999999999645
210
0
220
0
230
1
100
AcDbArc
50
180
51
270
0
LINE
5
339
100
AcDbEntity
8
0
100
AcDbLine
10
127.02500000000029
20
101.22532030837064
30
0
11
142.97500000000034
21
101.22532030837064
31
0
0
LINE
5
340
100
AcDbEntity
8
0
100
AcDbLine
10
126.02500000000026
20
100.06436226913505
30
0
11
126.02500000000028
21
100.22532030837063
31
0
0
ARC
5
341
100
AcDbEntity
8
0
100
AcDbCircle
10
127.02500000000035
20
100.0643622691351
30
0
40
1.0000000000000853
210
0
220
0
230
1
100
AcDbArc
50
180
51
269.99999999999676
0
ARC
5
342
100
AcDbEntity
8
0
100
AcDbCircle
10
142.97500000000031
20
88.275320308370638
30
0
40
0.99999999999997868
210
0
220
0
230
1
100
AcDbArc
50
-90
51
0
0
LINE
5
343
100
AcDbEntity
8
0
100
AcDbLine
10
141.97500000000028
20
98.064362269135046
30
0
11
141.97500000000028
21
90.43627834760629
31
0
0
LINE
5
344
100
AcDbEntity
8
0
100
AcDbLine
10
128.02500000000029
20
90.43627834760629
30
0
11
128.02500000000029
21
98.064362269135046
31
0
0
ARC
5
345
100
AcDbEntity
8
0
100
AcDbCircle
10
127.02500000000029
20
90.43627834760629
30
0
40
0.99999999999999645
210
0
220
0
230
1
100
AcDbArc
50
-90
51
0
0
ARC
5
346
100
AcDbEntity
8
0
100
AcDbCircle
10
142.97500000000034
20
100.22532030837067
30
0
40
0.99999999999997868
210
0
220
0
230
1
100
AcDbArc
50
0
51
90
0
ARC
5
347
100
AcDbEntity
8
0
100
AcDbCircle
10
127.02500000000028
20
88.275320308370652
30
0
40
0.99999999999999645
210
0
220
0
230
1
100
AcDbArc
50
180
51
270.0000000000008
0
LINE
5
348
100
AcDbEntity
8
0
100
AcDbLine
10
143.97500000000031
20
100.06436226913505
30
0
11
143.97500000000031
21
100.22532030837063
31
0
0
LINE
5
349
100
AcDbEntity
8
0
100
AcDbLine
10
126.02500000000028
20
88.436278347606304
30
0
11
126.02500000000028
21
88.275320308370652
31
0
0
LINE
5
350
100
AcDbEntity
8
0
100
AcDbLine
10
127.02500000000029
20
87.275320308370681
30
0
11
142.97500000000031
21
87.275320308370667
31
0
0
LINE
5
351
100
AcDbEntity
8
0
100
AcDbLine
10
143.97500000000031
20
88.436278347606304
30
0
11
143.97500000000031
21
88.275320308370652
31
0
0
ARC
5
352
100
AcDbEntity
8
0
100
AcDbCircle
10
127.02500000000029
20
88.436278347606304
30
0
40
0.99999999999999645
210
0
220
-0
230
1
100
AcDbArc
50
90
51
180
0
ARC
5
353
100
AcDbEntity
8
0
100
AcDbCircle
10
142.97500000000031
20
88.436278347606304
30
0
40
0.99999999999999645
210
0
220
-0
230
1
100
AcDbArc
50
0
51
90
0
LINE
5
354
100
AcDbEntity
8
0
100
AcDbLine
10
176.01295074872311
20
101.68627754031482
30
0
11
176.01295074872311
21
101.52531950107917
31
0
0
LINE
5
355
100
AcDbEntity
8
0
100
AcDbLine
10
159.0629507487231
20
100.5253195010792
30
0
11
175.01295074872309
21
100.52531950107918
31
0
0
ARC
5
356
100
AcDbEntity
8
0
100
AcDbCircle
10
159.0629507487231
20
101.68627754031482
30
0
40
0.99999999999999645
210
0
220
-0
230
1
100
AcDbArc
50
90
51
180
0
ARC
5
357
100
AcDbEntity
8
0
100
AcDbCircle
10
175.01295074872309
20
101.68627754031482
30
0
40
1.0000000000000142
210
0
220
-0
230
1
100
AcDbArc
50
0
51
90
0
ARC
5
358
100
AcDbEntity
8
0
100
AcDbCircle
10
159.06295074872307
20
111.31436146184349
30
0
40
1.0000000000000675
210
0
220
-0
230
1
100
AcDbArc
50
0
51
89.99999999999838
0
LINE
5
359
100
AcDbEntity
8
0
100
AcDbLine
10
158.0629507487231
20
101.68627754031482
30
0
11
158.0629507487231
21
101.52531950107917
31
0
0
ARC
5
360
100
AcDbEntity
8
0
100
AcDbCircle
10
159.06295074872315
20
113.31436146184362
30
0
40
1.0000000000000853
210
0
220
0
230
1
100
AcDbArc
50
180
51
269.99999999999676
0
LINE
5
361
100
AcDbEntity
8
0
100
AcDbLine
10
160.06295074872313
20
103.6862775403148
30
0
11
160.06295074872313
21
111.31436146184356
31
0
0
LINE
5
362
100
AcDbEntity
8
0
100
AcDbLine
10
174.01295074872309
20
111.31436146184356
30
0
11
174.01295074872309
21
103.6862775403148
31
0
0
ARC
5
363
100
AcDbEntity
8
0
100
AcDbCircle
10
159.0629507487231
20
103.6862775403148
30
0
40
0.99999999999999645
210
0
220
0
230
1
100
AcDbArc
50
-90
51
0
0
ARC
5
364
100
AcDbEntity
8
0
100
AcDbCircle
10
175.01295074872314
20
101.52531950107915
30
0
40
0.99999999999997868
210
0
220
0
230
1
100
AcDbArc
50
-90.000000000003254
51
0
0
ARC
5
365
100
AcDbEntity
8
0
100
AcDbCircle
10
175.01295074872309
20
103.6862775403148
30
0
40
1.0000000000000142
210
0
220
0
230
1
100
AcDbArc
50
180
51
270
0
LINE
5
366
100
AcDbEntity
8
0
100
AcDbLine
10
176.01295074872311
20
113.31436146184356
30
0
11
176.01295074872311
21
113.47531950107914
31
0
0
ARC
5
367
100
AcDbEntity
8
0
100
AcDbCircle
10
159.0629507487231
20
101.52531950107917
30
0
40
0.99999999999999645
210
0
220
0
230
1
100
AcDbArc
50
180
51
270
0
ARC
5
368
100
AcDbEntity
8
0
100
AcDbCircle
10
159.06295074872313
20
113.47531950107914
30
0
40
1.0000000000000142
210
0
220
0
230
1
100
AcDbArc
50
90.000000000001634
51
180
0
LINE
5
369
100
AcDbEntity
8
0
100
AcDbLine
10
159.0629507487231
20
114.47531950107916
30
0
11
175.01295074872317
21
114.47531950107916
31
0
0
ARC
5
370
100
AcDbEntity
8
0
100
AcDbCircle
10
175.01295074872317
20
111.31436146184349
30
0
40
1.0000000000000497
210
0
220
0
230
1
100
AcDbArc
50
90.000000000004889
51
180
0
ARC
5
371
100
AcDbEntity
8
0
100
AcDbCircle
10
175.01295074872317
20
113.47531950107918
30
0
40
0.99999999999994316
210
0
220
0
230
1
100
AcDbArc
50
0
51
90
0
ARC
5
372
100
AcDbEntity
8
0
100
AcDbCircle
10
175.01295074872309
20
113.31436146184359
30
0
40
1.0000000000000497
210
0
220
0
230
1
100
AcDbArc
50
270
51
360
0
LINE
5
373
100
AcDbEntity
8
0
100
AcDbLine
10
158.06295074872307
20
113.31436146184356
30
0
11
158.0629507487231
21
113.47531950107914
31
0
0
LINE
5
374
100
AcDbEntity
8
0
100
AcDbLine
10
207.99422693945411
20
118.18936106271042
30
0
11
207.99422693945411
21
110.56127714118168
31
0
0
ARC
5
375
100
AcDbEntity
8
0
100
AcDbCircle
10
193.04422693945412
20
108.40031910194604
30
0
40
1.0000000000000142
210
0
220
0
230
1
100
AcDbArc
50
180
51
270
0
ARC
5
376
100
AcDbEntity
8
0
100
AcDbCircle
10
193.04422693945418
20
120.18936106271049
30
0
40
1.0000000000000853
210
0
220
0
230
1
100
AcDbArc
50
180
51
269.99999999999676
0
LINE
5
377
100
AcDbEntity
8
0
100
AcDbLine
10
194.04422693945412
20
110.56127714118168
30
0
11
194.04422693945412
21
118.18936106271042
31
0
0
LINE
5
378
100
AcDbEntity
8
0
100
AcDbLine
10
192.04422693945412
20
120.18936106271042
30
0
11
192.04422693945412
21
120.35031910194601
31
0
0
ARC
5
379
100
AcDbEntity
8
0
100
AcDbCircle
10
208.99422693945417
20
118.18936106271036
30
0
40
1.0000000000000497
210
0
220
0
230
1
100
AcDbArc
50
90.000000000003254
51
180
0
ARC
5
380
100
AcDbEntity
8
0
100
AcDbCircle
10
208.99422693945411
20
108.56127714118168
30
0
40
1.0000000000000142
210
0
220
-0
230
1
100
AcDbArc
50
0
51
90
0
LINE
5
381
100
AcDbEntity
8
0
100
AcDbLine
10
193.04422693945412
20
121.35031910194601
30
0
11
208.99422693945417
21
121.35031910194601
31
0
0
ARC
5
382
100
AcDbEntity
8
0
100
AcDbCircle
10
208.99422693945411
20
120.18936106271045
30
0
40
1.0000000000000497
210
0
220
0
230
1
100
AcDbArc
50
270
51
360
0
ARC
5
383
100
AcDbEntity
8
0
100
AcDbCircle
10
208.99422693945417
20
120.35031910194604
30
0
40
0.99999999999994316
210
0
220
0
230
1
100
AcDbArc
50
0
51
90
0
LINE
5
384
100
AcDbEntity
8
0
100
AcDbLine
10
192.04422693945412
20
108.56127714118168
30
0
11
192.04422693945412
21
108.40031910194604
31
0
0
ARC
5
385
100
AcDbEntity
8
0
100
AcDbCircle
10
208.99422693945414
20
108.40031910194602
30
0
40
0.99999999999997868
210
0
220
0
230
1
100
AcDbArc
50
-90.000000000001634
51
0
0
ARC
5
386
100
AcDbEntity
8
0
100
AcDbCircle
10
193.04422693945412
20
108.56127714118168
30
0
40
0.99999999999999645
210
0
220
-0
230
1
100
AcDbArc
50
90
51
180
0
LINE
5
387
100
AcDbEntity
8
0
100
AcDbLine
10
209.99422693945411
20
108.56127714118168
30
0
11
209.99422693945411
21
108.40031910194604
31
0
0
LINE
5
388
100
AcDbEntity
8
0
100
AcDbLine
10
209.99422693945411
20
120.18936106271042
30
0
11
209.99422693945411
21
120.35031910194601
31
0
0
ARC
5
389
100
AcDbEntity
8
0
100
AcDbCircle
10
193.04422693945412
20
110.56127714118168
30
0
40
0.99999999999999645
210
0
220
0
230
1
100
AcDbArc
50
-90
51
0
0
ARC
5
390
100
AcDbEntity
8
0
100
AcDbCircle
10
208.99422693945411
20
110.56127714118168
30
0
40
1.0000000000000142
210
0
220
0
230
1
100
AcDbArc
50
180
51
270
0
LINE
5
391
100
AcDbEntity
8
0
100
AcDbLine
10
193.04422693945412
20
107.40031910194605
30
0
11
208.99422693945411
21
107.40031910194604
31
0
0
ARC
5
392
100
AcDbEntity
8
0
100
AcDbCircle
10
193.04422693945406
20
118.18936106271036
30
0
40
1.0000000000000853
210
0
220
-0
230
1
100
AcDbArc
50
0
51
89.999999999996746
0
ARC
5
393
100
AcDbEntity
8
0
100
AcDbCircle
10
193.04422693945412
20
120.35031910194601
30
0
40
1.0000000000000142
210
0
220
-0
230
1
100
AcDbArc
50
90
51
180
0
ARC
5
394
100
AcDbEntity
8
0
100
AcDbCircle
10
228.12849988238804
20
108.40032047191468
30
0
40
0.99999999999997868
210
0
220
0
230
1
100
AcDbArc
50
180
51
270.00000000000159
0
ARC
5
395
100
AcDbEntity
8
0
100
AcDbCircle
10
244.07849988238809
20
108.56127851115032
30
0
40
0.99999999999997868
210
0
220
-0
230
1
100
AcDbArc
50
0
51
90
0
LINE
5
396
100
AcDbEntity
8
0
100
AcDbLine
10
228.12849988238807
20
107.4003204719147
30
0
11
244.07849988238809
21
107.40032047191468
31
0
0
ARC
5
397
100
AcDbEntity
8
0
100
AcDbCircle
10
244.07849988238803
20
120.18936243267909
30
0
40
1.0000000000000497
210
0
220
0
230
1
100
AcDbArc
50
270.00000000000324
51
360
0
LINE
5
398
100
AcDbEntity
8
0
100
AcDbLine
10
227.12849988238804
20
108.56127851115032
30
0
11
227.12849988238804
21
108.40032047191468
31
0
0
ARC
5
399
100
AcDbEntity
8
0
100
AcDbCircle
10
244.07849988238809
20
108.40032047191465
30
0
40
0.99999999999997868
210
0
220
0
230
1
100
AcDbArc
50
-90
51
0
0
LINE
5
400
100
AcDbEntity
8
0
100
AcDbLine
10
245.07849988238806
20
108.56127851115032
30
0
11
245.07849988238806
21
108.40032047191468
31
0
0
ARC
5
401
100
AcDbEntity
8
0
100
AcDbCircle
10
228.12849988238807
20
110.56127851115031
30
0
40
0.99999999999999645
210
0
220
0
230
1
100
AcDbArc
50
-90
51
0
0
ARC
5
402
100
AcDbEntity
8
0
100
AcDbCircle
10
244.07849988238806
20
110.56127851115031
30
0
40
0.99999999999997868
210
0
220
0
230
1
100
AcDbArc
50
180
51
270
0
LINE
5
403
100
AcDbEntity
8
0
100
AcDbLine
10
243.07849988238809
20
118.18936243267906
30
0
11
243.07849988238809
21
110.56127851115031
31
0
0
LINE
5
404
100
AcDbEntity
8
0
100
AcDbLine
10
229.12849988238804
20
110.56127851115031
30
0
11
229.12849988238804
21
118.18936243267906
31
0
0
ARC
5
405
100
AcDbEntity
8
0
100
AcDbCircle
10
228.12849988238807
20
108.56127851115032
30
0
40
0.99999999999999645
210
0
220
-0
230
1
100
AcDbArc
50
90
51
180
0
LINE
5
406
100
AcDbEntity
8
0
100
AcDbLine
10
228.12849988238807
20
121.35032047191466
30
0
11
244.07849988238809
21
121.35032047191466
31
0
0
LINE
5
407
100
AcDbEntity
8
0
100
AcDbLine
10
227.12849988238801
20
120.18936243267905
30
0
11
227.12849988238804
21
120.35032047191464
31
0
0
ARC
5
408
100
AcDbEntity
8
0
100
AcDbCircle
10
228.1284998823881
20
120.18936243267913
30
0
40
1.0000000000000853
210
0
220
0
230
1
100
AcDbArc
50
180
51
269.99999999999835
0
ARC
5
409
100
AcDbEntity
8
0
100
AcDbCircle
10
228.1284998823881
20
120.35032047191464
30
0
40
1.0000000000000142
210
0
220
0
230
1
100
AcDbArc
50
90.000000000001634
51
180
0
ARC
5
410
100
AcDbEntity
8
0
100
AcDbCircle
10
244.07849988238809
20
118.18936243267899
30
0
40
1.0000000000000497
210
0
220
0
230
1
100
AcDbArc
50
90.000000000001634
51
180
0
ARC
5
411
100
AcDbEntity
8
0
100
AcDbCircle
10
244.07849988238809
20
120.35032047191467
30
0
40
1.0000000000000142
210
0
220
0
230
1
100
AcDbArc
50
0
51
90
0
ARC
5
412
100
AcDbEntity
8
0
100
AcDbCircle
10
228.12849988238804
20
118.18936243267899
30
0
40
1.0000000000000142
210
0
220
-0
230
1
100
AcDbArc
50
0
51
89.99999999999838
0
LINE
5
413
100
AcDbEntity
8
0
100
AcDbLine
10
245.07849988238809
20
120.18936243267905
30
0
11
245.07849988238809
21
120.35032047191464
31
0
0
LINE
5
414
100
AcDbEntity
8
0
100
AcDbLine
10
173.44571864484948
20
72.814362199628221
30
0
11
173.44571864484948
21
65.186278278099465
31
0
0
LINE
5
415
100
AcDbEntity
8
0
100
AcDbLine
10
157.49571864484946
20
74.814362199628206
30
0
11
157.49571864484949
21
74.975320238863802
31
0
0
ARC
5
416
100
AcDbEntity
8
0
100
AcDbCircle
10
174.44571864484948
20
65.186278278099465
30
0
40
1.0000000000000142
210
0
220
0
230
1
100
AcDbArc
50
180
51
270
0
ARC
5
417
100
AcDbEntity
8
0
100
AcDbCircle
10
174.44571864484956
20
72.81436219962815
30
0
40
1.0000000000000497
210
0
220
0
230
1
100
AcDbArc
50
90.000000000004889
51
180
0
ARC
5
418
100
AcDbEntity
8
0
100
AcDbCircle
10
158.49571864484949
20
63.186278278099472
30
0
40
0.99999999999999645
210
0
220
-0
230
1
100
AcDbArc
50
90
51
180
0
LINE
5
419
100
AcDbEntity
8
0
100
AcDbLine
10
175.44571864484951
20
74.814362199628206
30
0
11
175.44571864484951
21
74.975320238863802
31
0
0
ARC
5
420
100
AcDbEntity
8
0
100
AcDbCircle
10
158.49571864484946
20
72.81436219962815
30
0
40
1.0000000000000497
210
0
220
-0
230
1
100
AcDbArc
50
0
51
89.99999999999838
0
ARC
5
421
100
AcDbEntity
8
0
100
AcDbCircle
10
158.49571864484955
20
74.814362199628277
30
0
40
1.0000000000000853
210
0
220
0
230
1
100
AcDbArc
50
180
51
269.99999999999676
0
ARC
5
422
100
AcDbEntity
8
0
100
AcDbCircle
10
174.44571864484948
20
74.814362199628249
30
0
40
1.0000000000000497
210
0
220
0
230
1
100
AcDbArc
50
270
51
360
0
LINE
5
423
100
AcDbEntity
8
0
100
AcDbLine
10
158.49571864484949
20
75.975320238863816
30
0
11
174.44571864484956
21
75.975320238863816
31
0
0
ARC
5
424
100
AcDbEntity
8
0
100
AcDbCircle
10
158.49571864484949
20
63.025320238863827
30
0
40
0.99999999999999645
210
0
220
0
230
1
100
AcDbArc
50
180
51
270
0
LINE
5
425
100
AcDbEntity
8
0
100
AcDbLine
10
158.49571864484949
20
62.025320238863848
30
0
11
174.44571864484948
21
62.025320238863834
31
0
0
ARC
5
426
100
AcDbEntity
8
0
100
AcDbCircle
10
174.44571864484948
20
63.186278278099472
30
0
40
1.0000000000000142
210
0
220
-0
230
1
100
AcDbArc
50
0
51
90
0
LINE
5
427
100
AcDbEntity
8
0
100
AcDbLine
10
175.44571864484951
20
63.186278278099472
30
0
11
175.44571864484951
21
63.025320238863827
31
0
0
ARC
5
428
100
AcDbEntity
8
0
100
AcDbCircle
10
158.49571864484952
20
74.975320238863802
30
0
40
1.0000000000000142
210
0
220
0
230
1
100
AcDbArc
50
90.000000000001634
51
180
0
ARC
5
429
100
AcDbEntity
8
0
100
AcDbCircle
10
174.44571864484953
20
63.025320238863813
30
0
40
0.99999999999997868
210
0
220
0
230
1
100
AcDbArc
50
-90.000000000003254
51
0
0
ARC
5
430
100
AcDbEntity
8
0
100
AcDbCircle
10
174.44571864484956
20
74.97532023886383
30
0
40
0.99999999999994316
210
0
220
0
230
1
100
AcDbArc
50
0
51
90
0
ARC
5
431
100
AcDbEntity
8
0
100
AcDbCircle
10
158.49571864484949
20
65.186278278099465
30
0
40
0.99999999999999645
210
0
220
0
230
1
100
AcDbArc
50
-90
51
0
0
LINE
5
432
100
AcDbEntity
8
0
100
AcDbLine
10
157.49571864484949
20
63.186278278099472
30
0
11
157.49571864484949
21
63.025320238863827
31
0
0
LINE
5
433
100
AcDbEntity
8
0
100
AcDbLine
10
159.49571864484949
20
65.186278278099465
30
0
11
159.49571864484949
21
72.814362199628221
31
0
0
LWPOLYLINE
5
434
100
AcDbEntity
8
0
100
AcDbPolyline
90
8
70
1
43
0.0
10
247.99999999999977
20
182.74999999999991
10
231.99999999999983
20
182.74999999999991
42
-0.41421356237309503
10
230.9999999999998
20
183.74999999999994
10
230.9999999999998
20
194.24999999999989
42
-0.41421356237309503
10
231.99999999999983
20
195.24999999999991
10
247.99999999999977
20
195.24999999999991
42
-0.41421356237309503
10
248.99999999999977
20
194.24999999999989
10
248.99999999999977
20
183.74999999999994
42
-0.41421356237309503
0
ENDSEC
0
SECTION
2
OBJECTS
0
DICTIONARY
5
C
100
AcDbDictionary
3
ACAD_GROUP
350
D
3
ACAD_MLINESTYLE
350
17
0
DICTIONARY
5
D
100
AcDbDictionary
0
DICTIONARY
5
1A
330
C
100
AcDbDictionary
0
DICTIONARY
5
17
100
AcDbDictionary
0
ENDSEC
0
EOF
